
<svg width="54" height="54" viewBox="0 0 54 54" fill="none" xmlns="http://www.w3.org/2000/svg">
<path d="M1.00003 52L1.00004 53H2.00003H2.03809H2.07627H2.11454H2.15293H2.19142H2.23002H2.26872H2.30752H2.34643H2.38544H2.42456H2.46378H2.5031H2.54253H2.58206H2.62169H2.66141H2.70125H2.74118H2.78121H2.82134H2.86157H2.9019H2.94232H2.98285H3.02347H3.06419H3.10501H3.14592H3.18693H3.22804H3.26924H3.31054H3.35193H3.39342H3.43499H3.47667H3.51843H3.56029H3.60224H3.64429H3.68642H3.72865H3.77097H3.81338H3.85587H3.89846H3.94114H3.9839H4.02676H4.0697H4.11273H4.15585H4.19906H4.24235H4.28573H4.32919H4.37274H4.41637H4.46009H4.5039H4.54779H4.59176H4.63581H4.67995H4.72417H4.76847H4.81286H4.85732H4.90187H4.9465H4.9912H5.03599H5.08086H5.1258H5.17083H5.21593H5.26111H5.30637H5.35171H5.39712H5.44261H5.48817H5.53381H5.57953H5.62532H5.67118H5.71712H5.76314H5.80922H5.85538H5.90161H5.94792H5.99429H6.04074H6.08726H6.13385H6.18051H6.22724H6.27403H6.3209H6.36784H6.41484H6.46192H6.50906H6.55627H6.60354H6.65088H6.69829H6.74577H6.7933H6.84091H6.88858H6.93631H6.98411H7.03197H7.07989H7.12787H7.17592H7.22403H7.2722H7.32044H7.36873H7.41708H7.4655H7.51397H7.5625H7.6111H7.65975H7.70845H7.75722H7.80604H7.85492H7.90386H7.95285H8.0019H8.05101H8.10017H8.14938H8.19865H8.24797H8.29735H8.34678H8.39626H8.44579H8.49538H8.54502H8.59471H8.64445H8.69424H8.74408H8.79397H8.84391H8.8939H8.94394H8.99402H9.04416H9.09434H9.14457H9.19484H9.24516H9.29553H9.34594H9.3964H9.4469H9.49745H9.54804H9.59868H9.64935H9.70008H9.75084H9.80164H9.85249H9.90338H9.95431H10.0053H10.0563H10.1073H10.1584H10.2096H10.2607H10.3119H10.3632H10.4145H10.4658H10.5171H10.5685H10.62H10.6714H10.7229H10.7744H10.826H10.8776H10.9293H10.9809H11.0326H11.0844H11.1361H11.1879H11.2398H11.2916H11.3435H11.3954H11.4474H11.4994H11.5514H11.6034H11.6555H11.7076H11.7597H11.8119H11.864H11.9162H11.9685H12.0207H12.073H12.1253H12.1776H12.23H12.2824H12.3348H12.3872H12.4397H12.4921H12.5446H12.5971H12.6497H12.7022H12.7548H12.8074H12.86H12.9127H12.9653H13.018H13.0707H13.1234H13.1761H13.2289H13.2816H13.3344H13.3872H13.44H13.4928H13.5457H13.5985H13.6514H13.7043H13.7571H13.8101H13.863H13.9159H13.9688H14.0218H14.0748H14.1277H14.1807H14.2337H14.2867H14.3397H14.3927H14.4458H14.4988H14.5519H14.6049H14.658H14.711H14.7641H14.8172H14.8703H14.9233H14.9764H15.0295H15.0826H15.1357H15.1888H15.2419H15.295H15.3482H15.4013H15.4544H15.5075H15.5606H15.6137H15.6668H15.7199H15.7731H15.8262H15.8793H15.9324H15.9855H16.0386H16.0917H16.1448H16.1978H16.2509H16.304H16.3571H16.4101H16.4632H16.5163H16.5693H16.6223H16.6754H16.7284H16.7814H16.8344H16.8874H16.9404H16.9934H17.0463H17.0993H17.1522H17.2052H17.2581H17.311H17.3639H17.4168H17.4696H17.5225H17.5753H17.6281H17.681H17.7338H17.7865H17.8393H17.892H17.9448H17.9975H18.0502H18.1029H18.1555H18.2082H18.2608H18.3134H18.366H18.4185H18.4711H18.5236H18.5761H18.6285H18.681H18.7334H18.7858H18.8382H18.8906H18.9429H18.9952H19.0475H19.0998H19.152H19.2042H19.2564H19.3085H19.3607H19.4128H19.4649H19.5169H19.5689H19.6209H19.6729H19.7248H19.7767H19.8285H19.8804H19.9322H19.984H20.0357H20.0874H20.1391H20.1907H20.2423H20.2939H20.3454H20.3969H20.4484H20.4999H20.5512H20.6026H20.6539H20.7052H20.7565H20.8077H20.8589H20.91H20.9611H21.0121H21.0632H21.1141H21.1651H21.216H21.2668H21.3176H21.3684H21.4191H21.4698H21.5205H21.5711H21.6216H21.6721H21.7226H21.773H21.8234H21.8737H21.924H21.9742H22.0244H22.0746H22.1247H22.1747H22.2247H22.2746H22.3245H22.3744H22.4242H22.4739H22.5236H22.5733H22.6229H22.6724H22.7219H22.7714H22.8207H22.8701H22.9193H22.9686H23.0177H23.0669H23.1159H23.1649H23.2139H23.2628H23.3116H23.3604H23.4091H23.4577H23.5063H23.5549H23.6034H23.6518H23.7002H23.7485H23.7967H23.8449H23.893H23.9411H23.9891H24.037H24.0849H24.1327H24.1804H24.2281H24.2757H24.3232H24.3707H24.4182H24.4655H24.5128H24.56H24.6072H24.6542H24.7013H24.7482H24.7951H24.8419H24.8886H24.9353H24.9819H25.0284H25.0749H25.1213H25.1676H25.2138H25.26H25.3061H25.3521H25.3981H25.444H25.4898H25.5355H25.5812H25.6267H25.6722H25.7177H25.763H25.8083H25.8535H25.8986H25.9436H25.9886H26.0335H26.0783H26.123H26.1676H26.2122H26.2567H26.3011H26.3454H26.3896H26.4338H26.4778H26.5218H26.5657H26.6095H26.6533H26.6969H26.7405H26.784H26.8274H26.8707H26.9139H26.957H27.0001C41.3594 53 53 41.3594 53 27C53 12.6406 41.3594 1 27.0001 1C12.6407 1 1.00007 12.6406 1.00007 27L1.00003 52Z" fill="#CC2200" stroke="#CC2200" stroke-width="2"/>
<path d="M11.4912 36V17.3887H24.9482V19.585H13.9541V25.2852H24.25V27.4688H13.9541V33.8037H25.3799V36H11.4912Z" fill="black"/>
<path d="M28.6553 17.3887H35.5234C37.0723 17.3887 38.2529 17.5072 39.0654 17.7441C40.1572 18.0658 41.0924 18.637 41.8711 19.458C42.6497 20.279 43.2422 21.2861 43.6484 22.4795C44.0547 23.6644 44.2578 25.1286 44.2578 26.8721C44.2578 28.404 44.0674 29.7243 43.6865 30.833C43.221 32.1872 42.5566 33.2832 41.6934 34.1211C41.0417 34.7559 40.1615 35.251 39.0527 35.6064C38.2233 35.8688 37.1146 36 35.7266 36H28.6553V17.3887ZM32.4131 20.5371V32.8643H35.2188C36.2682 32.8643 37.0257 32.805 37.4912 32.6865C38.1006 32.5342 38.6042 32.276 39.002 31.9121C39.4082 31.5482 39.7383 30.9515 39.9922 30.1221C40.2461 29.2842 40.373 28.1458 40.373 26.707C40.373 25.2682 40.2461 24.1637 39.9922 23.3936C39.7383 22.6234 39.3828 22.0225 38.9258 21.5908C38.4688 21.1592 37.889 20.8672 37.1865 20.7148C36.6618 20.5964 35.6335 20.5371 34.1016 20.5371H32.4131Z" fill="white"/>
<rect x="31" y="20" width="10" height="14" fill="white"/>
</svg>
